<svg version="1.1" xmlns="http://www.w3.org/2000/svg" xmlns:xlink="http://www.w3.org/1999/xlink" width="1993" height="2516"><defs/><g><g/><g/><g/><g/><g/><g/><g/><g/><g/><g/><g/><g/><g/><g/><g/><g/><g/><g/><g/><g/><g/><g/><g/><g/><g/><g/><g/><g/><g/><g/><g/><g/><g/><g/><g/><g/><g/><g/><g/><g/><g/><g/><g/><g/><g/><g/><g/><g/><g/><g/><g/><g/><g/><g/><g/><g/><g/><g/><g/><g/><g/><g/><g><rect fill="white" stroke="none" x="0" y="0" width="1993" height="2516"/></g><g><text fill="black" stroke="none" font-family="sans-serif" font-size="16.5pt" font-style="normal" font-weight="normal" text-decoration="normal" x="798.0849001507988" y="22.6179738" text-anchor="start" dominant-baseline="alphabetic" xml:space="preserve">Aries Basic Messaging - Data Owner</text></g><g/><g><path fill="none" stroke="black" paint-order="fill stroke markers" d=" M 67.8539214 118.895148942 L 67.8539214 2516.400371742" stroke-miterlimit="10" stroke-width="1.2565541" stroke-dasharray="11.598960923076923,5.0262164"/><path fill="none" stroke="black" paint-order="fill stroke markers" d=" M 489.78032740468745 118.895148942 L 489.78032740468745 2516.400371742" stroke-miterlimit="10" stroke-width="1.2565541" stroke-dasharray="11.598960923076923,5.0262164"/><path fill="none" stroke="black" paint-order="fill stroke markers" d=" M 757.4900586046874 118.895148942 L 757.4900586046874 2516.400371742" stroke-miterlimit="10" stroke-width="1.2565541" stroke-dasharray="11.598960923076923,5.0262164"/><path fill="none" stroke="black" paint-order="fill stroke markers" d=" M 982.8810437439804 118.895148942 L 982.8810437439804 2516.400371742" stroke-miterlimit="10" stroke-width="1.2565541" stroke-dasharray="11.598960923076923,5.0262164"/><path fill="none" stroke="black" paint-order="fill stroke markers" d=" M 1314.4205640521836 118.895148942 L 1314.4205640521836 2516.400371742" stroke-miterlimit="10" stroke-width="1.2565541" stroke-dasharray="11.598960923076923,5.0262164"/><path fill="none" stroke="black" paint-order="fill stroke markers" d=" M 1736.3469700568712 118.895148942 L 1736.3469700568712 2516.400371742" stroke-miterlimit="10" stroke-width="1.2565541" stroke-dasharray="11.598960923076923,5.0262164"/></g><g><g><path fill="white" stroke="black" paint-order="fill stroke markers" d=" M 76.44875144400001 55.112462826000005 A 8.594830044 8.594830044 0 1 1 76.44874714658533 55.10386799738847 M 67.8539214 63.70729287 L 67.8539214 82.103244894 M 56.997293976 70.34189851800001 L 78.710548824 70.34189851800001 M 67.8539214 82.103244894 L 56.997293976 99.29290498200001 M 67.8539214 82.103244894 L 78.710548824 99.29290498200001" stroke-miterlimit="10" stroke-width="2.5633703640000003" stroke-dasharray=""/></g><g><g/><text fill="black" stroke="none" font-family="sans-serif" font-size="11pt" font-style="normal" font-weight="normal" text-decoration="normal" x="26.387254224707036" y="114.37155418200001" text-anchor="start" dominant-baseline="alphabetic" xml:space="preserve">DataOwner</text></g><path fill="none" stroke="none"/><g><path fill="white" stroke="black" paint-order="fill stroke markers" d=" M 370.09499607444525 78.182796102 L 609.4656587349297 78.182796102 L 609.4656587349297 118.89514894199999 L 370.09499607444525 118.89514894199999 L 370.09499607444525 78.182796102 Z" stroke-miterlimit="10" stroke-width="2.4125838720000004" stroke-dasharray=""/></g><g><g/><text fill="black" stroke="none" font-family="sans-serif" font-size="11pt" font-style="normal" font-weight="normal" text-decoration="normal" x="386.45533045644527" y="103.816499742" text-anchor="start" dominant-baseline="alphabetic" xml:space="preserve">Aries_DataOwner_Controller</text></g><path fill="none" stroke="none"/><g><path fill="white" stroke="black" paint-order="fill stroke markers" d=" M 652.1963898721015 78.182796102 L 862.7837273372734 78.182796102 L 862.7837273372734 118.89514894199999 L 652.1963898721015 118.89514894199999 L 652.1963898721015 78.182796102 Z" stroke-miterlimit="10" stroke-width="2.4125838720000004" stroke-dasharray=""/></g><g><g/><text fill="black" stroke="none" font-family="sans-serif" font-size="11pt" font-style="normal" font-weight="normal" text-decoration="normal" x="668.5567242541015" y="103.816499742" text-anchor="start" dominant-baseline="alphabetic" xml:space="preserve">Aries_DataOwner_Agent</text></g><path fill="none" stroke="none"/><g><path fill="white" stroke="black" paint-order="fill stroke markers" d=" M 877.8623765372733 78.182796102 L 1087.8997109506874 78.182796102 L 1087.8997109506874 118.89514894199999 L 877.8623765372733 118.89514894199999 L 877.8623765372733 78.182796102 Z" stroke-miterlimit="10" stroke-width="2.4125838720000004" stroke-dasharray=""/></g><g><g/><text fill="black" stroke="none" font-family="sans-serif" font-size="11pt" font-style="normal" font-weight="normal" text-decoration="normal" x="894.2227109192734" y="103.816499742" text-anchor="start" dominant-baseline="alphabetic" xml:space="preserve">Aries_Researcher_Agent</text></g><path fill="none" stroke="none"/><g><path fill="white" stroke="black" paint-order="fill stroke markers" d=" M 1195.0102266184258 78.182796102 L 1433.8309014859415 78.182796102 L 1433.8309014859415 118.89514894199999 L 1195.0102266184258 118.89514894199999 L 1195.0102266184258 78.182796102 Z" stroke-miterlimit="10" stroke-width="2.4125838720000004" stroke-dasharray=""/></g><g><g/><text fill="black" stroke="none" font-family="sans-serif" font-size="11pt" font-style="normal" font-weight="normal" text-decoration="normal" x="1211.3705610004258" y="103.816499742" text-anchor="start" dominant-baseline="alphabetic" xml:space="preserve">Aries_Researcher_Controller</text></g><g><path fill="white" stroke="black" paint-order="fill stroke markers" d=" M 1744.9418001008712 55.112462826000005 A 8.594830044 8.594830044 0 1 1 1744.9417958034564 55.10386799738847 M 1736.3469700568712 63.70729287 L 1736.3469700568712 82.103244894 M 1725.4903426328713 70.34189851800001 L 1747.2035974808712 70.34189851800001 M 1736.3469700568712 82.103244894 L 1725.4903426328713 99.29290498200001 M 1736.3469700568712 82.103244894 L 1747.2035974808712 99.29290498200001" stroke-miterlimit="10" stroke-width="2.5633703640000003" stroke-dasharray=""/></g><g><g/><text fill="black" stroke="none" font-family="sans-serif" font-size="11pt" font-style="normal" font-weight="normal" text-decoration="normal" x="1695.1553044074572" y="114.37155418200001" text-anchor="start" dominant-baseline="alphabetic" xml:space="preserve">Researcher</text></g></g><g><g><g><rect fill="white" stroke="none" x="85.69698961999997" y="167.14682638199997" width="386.2402695646875" height="19.602243960000003"/></g><text fill="black" stroke="none" font-family="sans-serif" font-size="11pt" font-style="normal" font-weight="normal" text-decoration="normal" x="87.95878699999997" y="180.71761066199997" text-anchor="start" dominant-baseline="alphabetic" xml:space="preserve">AriesAgentController(HOST,PORT,BASE,ADMIN_URL)</text></g><g><path fill="none" stroke="black" paint-order="fill stroke markers" d=" M 67.8539214 186.74907034199998 L 487.2672192046875 186.74907034199998" stroke-miterlimit="10" stroke-width="1.2565541" stroke-dasharray=""/><g transform="translate(489.78032740468745,186.74907034199998) translate(-489.78032740468745,-186.74907034199998)"><path fill="black" stroke="none" paint-order="stroke fill markers" d=" M 477.21478640468746 180.46629984199998 L 489.78032740468745 186.74907034199998 L 477.21478640468746 193.03184084199998 Z"/></g></g><g><g><rect fill="white" stroke="none" x="210.33865984705076" y="198.05805724199996" width="136.95692911058595" height="19.602243960000003"/></g><text fill="black" stroke="none" font-family="sans-serif" font-size="11pt" font-style="normal" font-weight="normal" text-decoration="normal" x="212.60045722705075" y="211.62884152199996" text-anchor="start" dominant-baseline="alphabetic" xml:space="preserve">listen_webhooks()</text></g><g><path fill="none" stroke="black" paint-order="fill stroke markers" d=" M 67.8539214 217.66030120199997 L 487.2672192046875 217.66030120199997" stroke-miterlimit="10" stroke-width="1.2565541" stroke-dasharray=""/><g transform="translate(489.78032740468745,217.66030120199997) translate(-489.78032740468745,-217.66030120199997)"><path fill="black" stroke="none" paint-order="stroke fill markers" d=" M 477.21478640468746 211.37753070199997 L 489.78032740468745 217.66030120199997 L 477.21478640468746 223.94307170199997 Z"/></g></g><g><g><rect fill="white" stroke="none" x="156.18032702234373" y="228.96928810199995" width="245.27359476" height="19.602243960000003"/></g><text fill="black" stroke="none" font-family="sans-serif" font-size="11pt" font-style="normal" font-weight="normal" text-decoration="normal" x="158.44212440234372" y="242.54007238199995" text-anchor="start" dominant-baseline="alphabetic" xml:space="preserve">register_listeners(defaults=True)</text></g><g><path fill="none" stroke="black" paint-order="fill stroke markers" d=" M 67.8539214 248.57153206199996 L 487.2672192046875 248.57153206199996" stroke-miterlimit="10" stroke-width="1.2565541" stroke-dasharray=""/><g transform="translate(489.78032740468745,248.57153206199996) translate(-489.78032740468745,-248.57153206199996)"><path fill="black" stroke="none" paint-order="stroke fill markers" d=" M 477.21478640468746 242.28876156199996 L 489.78032740468745 248.57153206199996 L 477.21478640468746 254.85430256199996 Z"/></g></g><g><g><rect fill="white" stroke="none" x="1332.2636322721837" y="300.59287180199993" width="386.2402695646875" height="19.602243960000003"/></g><text fill="black" stroke="none" font-family="sans-serif" font-size="11pt" font-style="normal" font-weight="normal" text-decoration="normal" x="1334.5254296521837" y="314.163656082" text-anchor="start" dominant-baseline="alphabetic" xml:space="preserve">AriesAgentController(HOST,PORT,BASE,ADMIN_URL)</text></g><g><path fill="none" stroke="black" paint-order="fill stroke markers" d=" M 1736.3469700568712 320.19511576199994 L 1316.9336722521837 320.19511576199994" stroke-miterlimit="10" stroke-width="1.2565541" stroke-dasharray=""/><g transform="translate(1314.4205640521836,320.19511576199994) translate(-1314.4205640521836,-320.19511576199994)"><path fill="black" stroke="none" paint-order="stroke fill markers" d=" M 1326.9861050521836 313.9123452619999 L 1314.4205640521836 320.19511576199994 L 1326.9861050521836 326.47788626199997 Z"/></g></g><g><g><rect fill="white" stroke="none" x="1456.9053024992345" y="331.5041026619999" width="136.95692911058595" height="19.602243960000003"/></g><text fill="black" stroke="none" font-family="sans-serif" font-size="11pt" font-style="normal" font-weight="normal" text-decoration="normal" x="1459.1670998792345" y="345.0748869419999" text-anchor="start" dominant-baseline="alphabetic" xml:space="preserve">listen_webhooks()</text></g><g><path fill="none" stroke="black" paint-order="fill stroke markers" d=" M 1736.3469700568712 351.10634662199993 L 1316.9336722521837 351.10634662199993" stroke-miterlimit="10" stroke-width="1.2565541" stroke-dasharray=""/><g transform="translate(1314.4205640521836,351.10634662199993) translate(-1314.4205640521836,-351.10634662199993)"><path fill="black" stroke="none" paint-order="stroke fill markers" d=" M 1326.9861050521836 344.8235761219999 L 1314.4205640521836 351.10634662199993 L 1326.9861050521836 357.38911712199996 Z"/></g></g><g><g><rect fill="white" stroke="none" x="1402.7469696745275" y="362.4153335219999" width="245.27359476" height="19.602243960000003"/></g><text fill="black" stroke="none" font-family="sans-serif" font-size="11pt" font-style="normal" font-weight="normal" text-decoration="normal" x="1405.0087670545274" y="375.98611780199997" text-anchor="start" dominant-baseline="alphabetic" xml:space="preserve">register_listeners(defaults=True)</text></g><g><path fill="none" stroke="black" paint-order="fill stroke markers" d=" M 1736.3469700568712 382.0175774819999 L 1316.9336722521837 382.0175774819999" stroke-miterlimit="10" stroke-width="1.2565541" stroke-dasharray=""/><g transform="translate(1314.4205640521836,382.0175774819999) translate(-1314.4205640521836,-382.0175774819999)"><path fill="black" stroke="none" paint-order="stroke fill markers" d=" M 1326.9861050521836 375.7348069819999 L 1314.4205640521836 382.0175774819999 L 1326.9861050521836 388.30034798199995 Z"/></g></g><g><g><rect fill="white" stroke="none" x="209.38032397058592" y="434.0389172219999" width="138.87360086351563" height="19.602243960000003"/></g><text fill="black" stroke="none" font-family="sans-serif" font-size="11pt" font-style="normal" font-weight="normal" text-decoration="normal" x="211.6421213505859" y="447.6097015019999" text-anchor="start" dominant-baseline="alphabetic" xml:space="preserve">create_invitation()</text></g><g><path fill="none" stroke="black" paint-order="fill stroke markers" d=" M 67.8539214 453.6411611819999 L 487.2672192046875 453.6411611819999" stroke-miterlimit="10" stroke-width="1.2565541" stroke-dasharray=""/><g transform="translate(489.78032740468745,453.6411611819999) translate(-489.78032740468745,-453.6411611819999)"><path fill="black" stroke="none" paint-order="stroke fill markers" d=" M 477.21478640468746 447.3583906819999 L 489.78032740468745 453.6411611819999 L 477.21478640468746 459.92393168199993 Z"/></g></g><g><g><rect fill="white" stroke="none" x="532.9317299752734" y="464.9501480819999" width="181.40692605882813" height="19.602243960000003"/></g><text fill="black" stroke="none" font-family="sans-serif" font-size="11pt" font-style="normal" font-weight="normal" text-decoration="normal" x="535.1935273552733" y="478.52093236199994" text-anchor="start" dominant-baseline="alphabetic" xml:space="preserve">POST Invitation Request</text></g><g><path fill="none" stroke="black" paint-order="fill stroke markers" d=" M 489.78032740468745 484.5523920419999 L 754.9769504046874 484.5523920419999" stroke-miterlimit="10" stroke-width="1.2565541" stroke-dasharray=""/><g transform="translate(757.4900586046874,484.5523920419999) translate(-757.4900586046874,-484.5523920419999)"><path fill="black" stroke="none" paint-order="stroke fill markers" d=" M 744.9245176046874 478.26962154199987 L 757.4900586046874 484.5523920419999 L 744.9245176046874 490.8351625419999 Z"/></g></g><g><g><rect fill="white" stroke="none" x="549.1650597482226" y="495.8613789419999" width="148.9402665129297" height="19.602243960000003"/></g><text fill="black" stroke="none" font-family="sans-serif" font-size="11pt" font-style="normal" font-weight="normal" text-decoration="normal" x="551.4268571282225" y="509.4321632219999" text-anchor="start" dominant-baseline="alphabetic" xml:space="preserve">Invitation Response</text></g><g><path fill="none" stroke="black" paint-order="fill stroke markers" d=" M 757.4900586046874 515.4636229019999 L 492.29343560468743 515.4636229019999" stroke-miterlimit="10" stroke-width="1.2565541" stroke-dasharray=""/><g transform="translate(489.78032740468745,515.4636229019999) translate(-489.78032740468745,-515.4636229019999)"><path fill="black" stroke="none" paint-order="stroke fill markers" d=" M 502.34586840468745 509.18085240199986 L 489.78032740468745 515.4636229019999 L 502.34586840468745 521.7463934019999 Z"/></g></g><g><g><rect fill="white" stroke="none" x="507.6233956246874" y="526.7726098019999" width="211.12360086351563" height="19.602243960000003"/></g><text fill="black" stroke="none" font-family="sans-serif" font-size="11pt" font-style="normal" font-weight="normal" text-decoration="normal" x="509.88519300468744" y="540.3433940819999" text-anchor="start" dominant-baseline="alphabetic" xml:space="preserve">Keep State of Connection ID</text></g><g><path fill="none" stroke="black" paint-order="fill stroke markers" d=" M 489.78032740468745 546.3748537619999 L 550.0949242046875 546.3748537619999 L 550.0949242046875 565.9770977219999 L 492.29343560468743 565.9770977219999" stroke-miterlimit="10" stroke-width="1.2565541" stroke-dasharray=""/><g transform="translate(489.78032740468745,565.9770977219999) translate(-489.78032740468745,-565.9770977219999)"><path fill="black" stroke="none" paint-order="stroke fill markers" d=" M 502.34586840468745 559.694327222 L 489.78032740468745 565.9770977219999 L 502.34586840468745 572.2598682219999 Z"/></g></g><g><g><rect fill="white" stroke="none" x="173.28032549646483" y="577.286084622" width="211.07359781175782" height="19.602243960000003"/></g><text fill="black" stroke="none" font-family="sans-serif" font-size="11pt" font-style="normal" font-weight="normal" text-decoration="normal" x="175.54212287646482" y="590.856868902" text-anchor="start" dominant-baseline="alphabetic" xml:space="preserve">Receive Invitation Response</text></g><g><path fill="none" stroke="black" paint-order="fill stroke markers" d=" M 489.78032740468745 596.888328582 L 70.36702960000001 596.888328582" stroke-miterlimit="10" stroke-width="1.2565541" stroke-dasharray=""/><g transform="translate(67.8539214,596.888328582) translate(-67.8539214,-596.888328582)"><path fill="black" stroke="none" paint-order="stroke fill markers" d=" M 80.4194624 590.605558082 L 67.8539214 596.888328582 L 80.4194624 603.171099082 Z"/></g></g><g><g><rect fill="white" stroke="none" x="1391.8803009733556" y="648.909668322" width="267.00693216234373" height="19.602243960000003"/></g><text fill="black" stroke="none" font-family="sans-serif" font-size="11pt" font-style="normal" font-weight="normal" text-decoration="normal" x="1394.1420983533555" y="662.480452602" text-anchor="start" dominant-baseline="alphabetic" xml:space="preserve">Receive Invitation from Data Owner</text></g><g><path fill="none" stroke="black" paint-order="fill stroke markers" d=" M 1736.3469700568712 668.511912282 L 1316.9336722521837 668.511912282" stroke-miterlimit="10" stroke-width="1.2565541" stroke-dasharray=""/><g transform="translate(1314.4205640521836,668.511912282) translate(-1314.4205640521836,-668.511912282)"><path fill="black" stroke="none" paint-order="stroke fill markers" d=" M 1326.9861050521836 662.229141782 L 1314.4205640521836 668.511912282 L 1326.9861050521836 674.794682782 Z"/></g></g><g><g><rect fill="white" stroke="none" x="1448.6969666227697" y="679.8208991820001" width="153.37360086351563" height="19.602243960000003"/></g><g><rect fill="white" stroke="none" x="1448.6969666227697" y="694.899548382" width="4.52359476" height="19.602243960000003"/></g><text fill="black" stroke="none" font-family="sans-serif" font-size="11pt" font-style="normal" font-weight="normal" text-decoration="normal" x="1450.9587640027696" y="693.3916834620001" text-anchor="start" dominant-baseline="alphabetic" xml:space="preserve">accept_connection()</text><text fill="black" stroke="none" font-family="sans-serif" font-size="11pt" font-style="normal" font-weight="normal" text-decoration="normal" x="1450.9587640027696" y="708.470332662" text-anchor="start" dominant-baseline="alphabetic" xml:space="preserve"></text></g><g><path fill="none" stroke="black" paint-order="fill stroke markers" d=" M 1736.3469700568712 714.501792342 L 1316.9336722521837 714.501792342" stroke-miterlimit="10" stroke-width="1.2565541" stroke-dasharray=""/><g transform="translate(1314.4205640521836,714.501792342) translate(-1314.4205640521836,-714.501792342)"><path fill="black" stroke="none" paint-order="stroke fill markers" d=" M 1326.9861050521836 708.2190218420001 L 1314.4205640521836 714.501792342 L 1326.9861050521836 720.784562842 Z"/></g></g><g><g><rect fill="white" stroke="none" x="1059.02233781691" y="725.8107792420001" width="179.25693216234376" height="19.602243960000003"/></g><text fill="black" stroke="none" font-family="sans-serif" font-size="11pt" font-style="normal" font-weight="normal" text-decoration="normal" x="1061.28413519691" y="739.3815635220001" text-anchor="start" dominant-baseline="alphabetic" xml:space="preserve">POST Receive Invitation</text></g><g><path fill="none" stroke="black" paint-order="fill stroke markers" d=" M 1314.4205640521836 745.4130232020001 L 985.3941519439804 745.4130232020001" stroke-miterlimit="10" stroke-width="1.2565541" stroke-dasharray=""/><g transform="translate(982.8810437439804,745.4130232020001) translate(-982.8810437439804,-745.4130232020001)"><path fill="black" stroke="none" paint-order="stroke fill markers" d=" M 995.4465847439805 739.1302527020001 L 982.8810437439804 745.4130232020001 L 995.4465847439805 751.6957937020001 Z"/></g></g><g><g><rect fill="white" stroke="none" x="1062.7473362910312" y="756.7220101020001" width="171.80693521410157" height="19.602243960000003"/></g><text fill="black" stroke="none" font-family="sans-serif" font-size="11pt" font-style="normal" font-weight="normal" text-decoration="normal" x="1065.0091336710311" y="770.2927943820001" text-anchor="start" dominant-baseline="alphabetic" xml:space="preserve">POST Accept Invitation</text></g><g><path fill="none" stroke="black" paint-order="fill stroke markers" d=" M 1314.4205640521836 776.3242540620001 L 985.3941519439804 776.3242540620001" stroke-miterlimit="10" stroke-width="1.2565541" stroke-dasharray=""/><g transform="translate(982.8810437439804,776.3242540620001) translate(-982.8810437439804,-776.3242540620001)"><path fill="black" stroke="none" paint-order="stroke fill markers" d=" M 995.4465847439805 770.0414835620002 L 982.8810437439804 776.3242540620001 L 995.4465847439805 782.6070245620001 Z"/></g></g><g><g><rect fill="white" stroke="none" x="826.648752268455" y="787.6332409620002" width="87.07359781175781" height="19.602243960000003"/></g><text fill="black" stroke="none" font-family="sans-serif" font-size="11pt" font-style="normal" font-weight="normal" text-decoration="normal" x="828.910549648455" y="801.2040252420002" text-anchor="start" dominant-baseline="alphabetic" xml:space="preserve">DIDComm?</text></g><g><path fill="none" stroke="black" paint-order="fill stroke markers" d=" M 982.8810437439804 807.2354849220002 L 760.0031668046875 807.2354849220002" stroke-miterlimit="10" stroke-width="1.2565541" stroke-dasharray=""/><g transform="translate(757.4900586046874,807.2354849220002) translate(-757.4900586046874,-807.2354849220002)"><path fill="black" stroke="none" paint-order="stroke fill markers" d=" M 770.0555996046875 800.9527144220002 L 757.4900586046874 807.2354849220002 L 770.0555996046875 813.5182554220002 Z"/></g></g><g><g><rect fill="white" stroke="none" x="1039.9390095698398" y="818.5444718220002" width="217.42358865648438" height="19.602243960000003"/></g><text fill="black" stroke="none" font-family="sans-serif" font-size="11pt" font-style="normal" font-weight="normal" text-decoration="normal" x="1042.2008069498397" y="832.1152561020002" text-anchor="start" dominant-baseline="alphabetic" xml:space="preserve">Accept Connection Response</text></g><g><path fill="none" stroke="black" paint-order="fill stroke markers" d=" M 982.8810437439804 838.1467157820002 L 1311.9074558521836 838.1467157820002" stroke-miterlimit="10" stroke-width="1.2565541" stroke-dasharray=""/><g transform="translate(1314.4205640521836,838.1467157820002) translate(-1314.4205640521836,-838.1467157820002)"><path fill="black" stroke="none" paint-order="stroke fill markers" d=" M 1301.8550230521837 831.8639452820003 L 1314.4205640521836 838.1467157820002 L 1301.8550230521837 844.4294862820002 Z"/></g></g><g><g><rect fill="white" stroke="none" x="1332.2636322721837" y="849.4557026820003" width="211.12360086351563" height="19.602243960000003"/></g><text fill="black" stroke="none" font-family="sans-serif" font-size="11pt" font-style="normal" font-weight="normal" text-decoration="normal" x="1334.5254296521837" y="863.0264869620003" text-anchor="start" dominant-baseline="alphabetic" xml:space="preserve">Keep State of Connection ID</text></g><g><path fill="none" stroke="black" paint-order="fill stroke markers" d=" M 1314.4205640521836 869.0579466420003 L 1374.7351608521835 869.0579466420003 L 1374.7351608521835 888.6601906020003 L 1316.9336722521837 888.6601906020003" stroke-miterlimit="10" stroke-width="1.2565541" stroke-dasharray=""/><g transform="translate(1314.4205640521836,888.6601906020003) translate(-1314.4205640521836,-888.6601906020003)"><path fill="black" stroke="none" paint-order="stroke fill markers" d=" M 1326.9861050521836 882.3774201020003 L 1314.4205640521836 888.6601906020003 L 1326.9861050521836 894.9429611020003 Z"/></g></g><g><g><rect fill="white" stroke="none" x="1385.6053070768712" y="899.9691775020003" width="279.5569199553125" height="19.602243960000003"/></g><text fill="black" stroke="none" font-family="sans-serif" font-size="11pt" font-style="normal" font-weight="normal" text-decoration="normal" x="1387.8671044568712" y="913.5399617820003" text-anchor="start" dominant-baseline="alphabetic" xml:space="preserve">Receive Connection Accept Response</text></g><g><path fill="none" stroke="black" paint-order="fill stroke markers" d=" M 1314.4205640521836 919.5714214620003 L 1733.8338618568712 919.5714214620003" stroke-miterlimit="10" stroke-width="1.2565541" stroke-dasharray=""/><g transform="translate(1736.3469700568712,919.5714214620003) translate(-1736.3469700568712,-919.5714214620003)"><path fill="black" stroke="none" paint-order="stroke fill markers" d=" M 1723.7814290568713 913.2886509620004 L 1736.3469700568712 919.5714214620003 L 1723.7814290568713 925.8541919620003 Z"/></g></g><g><g><rect fill="white" stroke="none" x="519.2233940988085" y="930.8804083620004" width="208.82359781175782" height="19.602243960000003"/></g><g><rect fill="white" stroke="none" x="519.2233940988085" y="945.9590575620003" width="4.52359476" height="19.602243960000003"/></g><text fill="black" stroke="none" font-family="sans-serif" font-size="11pt" font-style="normal" font-weight="normal" text-decoration="normal" x="521.4851914788085" y="944.4511926420004" text-anchor="start" dominant-baseline="alphabetic" xml:space="preserve">POST connections Webhook</text><text fill="black" stroke="none" font-family="sans-serif" font-size="11pt" font-style="normal" font-weight="normal" text-decoration="normal" x="521.4851914788085" y="959.5298418420003" text-anchor="start" dominant-baseline="alphabetic" xml:space="preserve"></text></g><g><path fill="none" stroke="black" paint-order="fill stroke markers" d=" M 757.4900586046874 965.5613015220003 L 492.29343560468743 965.5613015220003" stroke-miterlimit="10" stroke-width="1.2565541" stroke-dasharray=""/><g transform="translate(489.78032740468745,965.5613015220003) translate(-489.78032740468745,-965.5613015220003)"><path fill="black" stroke="none" paint-order="stroke fill markers" d=" M 502.34586840468745 959.2785310220004 L 489.78032740468745 965.5613015220003 L 502.34586840468745 971.8440720220003 Z"/></g></g><g><g><rect fill="white" stroke="none" x="507.6233956246874" y="976.8702884220004" width="177.57359781175782" height="19.602243960000003"/></g><text fill="black" stroke="none" font-family="sans-serif" font-size="11pt" font-style="normal" font-weight="normal" text-decoration="normal" x="509.88519300468744" y="990.4410727020004" text-anchor="start" dominant-baseline="alphabetic" xml:space="preserve">Emit connections event</text></g><g><path fill="none" stroke="black" paint-order="fill stroke markers" d=" M 489.78032740468745 996.4725323820004 L 550.0949242046875 996.4725323820004 L 550.0949242046875 1016.0747763420004 L 492.29343560468743 1016.0747763420004" stroke-miterlimit="10" stroke-width="1.2565541" stroke-dasharray=""/><g transform="translate(489.78032740468745,1016.0747763420004) translate(-489.78032740468745,-1016.0747763420004)"><path fill="black" stroke="none" paint-order="stroke fill markers" d=" M 502.34586840468745 1009.7920058420004 L 489.78032740468745 1016.0747763420004 L 502.34586840468745 1022.3575468420004 Z"/></g></g><g><g><rect fill="white" stroke="none" x="214.66366060999022" y="1068.0961160820004" width="128.30692758470704" height="19.602243960000003"/></g><text fill="black" stroke="none" font-family="sans-serif" font-size="11pt" font-style="normal" font-weight="normal" text-decoration="normal" x="216.9254579899902" y="1081.6669003620004" text-anchor="start" dominant-baseline="alphabetic" xml:space="preserve">accept_request()</text></g><g><path fill="none" stroke="black" paint-order="fill stroke markers" d=" M 67.8539214 1087.6983600420003 L 487.2672192046875 1087.6983600420003" stroke-miterlimit="10" stroke-width="1.2565541" stroke-dasharray=""/><g transform="translate(489.78032740468745,1087.6983600420003) translate(-489.78032740468745,-1087.6983600420003)"><path fill="black" stroke="none" paint-order="stroke fill markers" d=" M 477.21478640468746 1081.4155895420004 L 489.78032740468745 1087.6983600420003 L 477.21478640468746 1093.9811305420003 Z"/></g></g><g><g><rect fill="white" stroke="none" x="542.5483986764452" y="1099.0073469420004" width="162.17358865648438" height="19.602243960000003"/></g><text fill="black" stroke="none" font-family="sans-serif" font-size="11pt" font-style="normal" font-weight="normal" text-decoration="normal" x="544.8101960564452" y="1112.5781312220004" text-anchor="start" dominant-baseline="alphabetic" xml:space="preserve">POST Accept Request</text></g><g><path fill="none" stroke="black" paint-order="fill stroke markers" d=" M 489.78032740468745 1118.6095909020003 L 754.9769504046874 1118.6095909020003" stroke-miterlimit="10" stroke-width="1.2565541" stroke-dasharray=""/><g transform="translate(757.4900586046874,1118.6095909020003) translate(-757.4900586046874,-1118.6095909020003)"><path fill="black" stroke="none" paint-order="stroke fill markers" d=" M 744.9245176046874 1112.3268204020003 L 757.4900586046874 1118.6095909020003 L 744.9245176046874 1124.8923614020002 Z"/></g></g><g><g><rect fill="white" stroke="none" x="826.648752268455" y="1129.9185778020003" width="87.07359781175781" height="19.602243960000003"/></g><text fill="black" stroke="none" font-family="sans-serif" font-size="11pt" font-style="normal" font-weight="normal" text-decoration="normal" x="828.910549648455" y="1143.4893620820003" text-anchor="start" dominant-baseline="alphabetic" xml:space="preserve">DIDComm?</text></g><g><path fill="none" stroke="black" paint-order="fill stroke markers" d=" M 757.4900586046874 1149.5208217620002 L 980.3679355439804 1149.5208217620002" stroke-miterlimit="10" stroke-width="1.2565541" stroke-dasharray=""/><g transform="translate(982.8810437439804,1149.5208217620002) translate(-982.8810437439804,-1149.5208217620002)"><path fill="black" stroke="none" paint-order="stroke fill markers" d=" M 970.3155027439803 1143.2380512620002 L 982.8810437439804 1149.5208217620002 L 970.3155027439803 1155.8035922620002 Z"/></g></g><g><g><rect fill="white" stroke="none" x="526.6400658517382" y="1160.8298086620002" width="193.99025430589845" height="19.602243960000003"/></g><text fill="black" stroke="none" font-family="sans-serif" font-size="11pt" font-style="normal" font-weight="normal" text-decoration="normal" x="528.9018632317382" y="1174.4005929420002" text-anchor="start" dominant-baseline="alphabetic" xml:space="preserve">Accept Request Response</text></g><g><path fill="none" stroke="black" paint-order="fill stroke markers" d=" M 757.4900586046874 1180.4320526220001 L 492.29343560468743 1180.4320526220001" stroke-miterlimit="10" stroke-width="1.2565541" stroke-dasharray=""/><g transform="translate(489.78032740468745,1180.4320526220001) translate(-489.78032740468745,-1180.4320526220001)"><path fill="black" stroke="none" paint-order="stroke fill markers" d=" M 502.34586840468745 1174.1492821220002 L 489.78032740468745 1180.4320526220001 L 502.34586840468745 1186.714823122 Z"/></g></g><g><g><rect fill="white" stroke="none" x="150.75532397058592" y="1191.7410395220002" width="256.1236008635156" height="19.602243960000003"/></g><text fill="black" stroke="none" font-family="sans-serif" font-size="11pt" font-style="normal" font-weight="normal" text-decoration="normal" x="153.0171213505859" y="1205.3118238020002" text-anchor="start" dominant-baseline="alphabetic" xml:space="preserve">Receive Accept Request Response</text></g><g><path fill="none" stroke="black" paint-order="fill stroke markers" d=" M 489.78032740468745 1211.343283482 L 70.36702960000001 1211.343283482" stroke-miterlimit="10" stroke-width="1.2565541" stroke-dasharray=""/><g transform="translate(67.8539214,1211.343283482) translate(-67.8539214,-1211.343283482)"><path fill="black" stroke="none" paint-order="stroke fill markers" d=" M 80.4194624 1205.060512982 L 67.8539214 1211.343283482 L 80.4194624 1217.626053982 Z"/></g></g><g><g><rect fill="white" stroke="none" x="1044.239004992203" y="1222.6522703819999" width="208.82359781175782" height="19.602243960000003"/></g><g><rect fill="white" stroke="none" x="1044.239004992203" y="1237.7309195819998" width="4.52359476" height="19.602243960000003"/></g><text fill="black" stroke="none" font-family="sans-serif" font-size="11pt" font-style="normal" font-weight="normal" text-decoration="normal" x="1046.500802372203" y="1236.2230546619999" text-anchor="start" dominant-baseline="alphabetic" xml:space="preserve">POST connections Webhook</text><text fill="black" stroke="none" font-family="sans-serif" font-size="11pt" font-style="normal" font-weight="normal" text-decoration="normal" x="1046.500802372203" y="1251.3017038619998" text-anchor="start" dominant-baseline="alphabetic" xml:space="preserve"></text></g><g><path fill="none" stroke="black" paint-order="fill stroke markers" d=" M 982.8810437439804 1257.333163542 L 1311.9074558521836 1257.333163542" stroke-miterlimit="10" stroke-width="1.2565541" stroke-dasharray=""/><g transform="translate(1314.4205640521836,1257.333163542) translate(-1314.4205640521836,-1257.333163542)"><path fill="black" stroke="none" paint-order="stroke fill markers" d=" M 1301.8550230521837 1251.050393042 L 1314.4205640521836 1257.333163542 L 1301.8550230521837 1263.615934042 Z"/></g></g><g><g><rect fill="white" stroke="none" x="1332.2636322721837" y="1268.642150442" width="177.57359781175782" height="19.602243960000003"/></g><text fill="black" stroke="none" font-family="sans-serif" font-size="11pt" font-style="normal" font-weight="normal" text-decoration="normal" x="1334.5254296521837" y="1282.212934722" text-anchor="start" dominant-baseline="alphabetic" xml:space="preserve">Emit connections event</text></g><g><path fill="none" stroke="black" paint-order="fill stroke markers" d=" M 1314.4205640521836 1288.2443944020001 L 1374.7351608521835 1288.2443944020001 L 1374.7351608521835 1307.846638362 L 1316.9336722521837 1307.846638362" stroke-miterlimit="10" stroke-width="1.2565541" stroke-dasharray=""/><g transform="translate(1314.4205640521836,1307.846638362) translate(-1314.4205640521836,-1307.846638362)"><path fill="black" stroke="none" paint-order="stroke fill markers" d=" M 1326.9861050521836 1301.563867862 L 1314.4205640521836 1307.846638362 L 1326.9861050521836 1314.129408862 Z"/></g></g><g><g><rect fill="white" stroke="none" x="1332.2636322721837" y="1319.155625262" width="312.42358865648436" height="19.602243960000003"/></g><text fill="black" stroke="none" font-family="sans-serif" font-size="11pt" font-style="normal" font-weight="normal" text-decoration="normal" x="1334.5254296521837" y="1332.726409542" text-anchor="start" dominant-baseline="alphabetic" xml:space="preserve">Default handler updates Connection state</text></g><g><path fill="none" stroke="black" paint-order="fill stroke markers" d=" M 1314.4205640521836 1338.7578692220002 L 1374.7351608521835 1338.7578692220002 L 1374.7351608521835 1358.360113182 L 1316.9336722521837 1358.360113182" stroke-miterlimit="10" stroke-width="1.2565541" stroke-dasharray=""/><g transform="translate(1314.4205640521836,1358.360113182) translate(-1314.4205640521836,-1358.360113182)"><path fill="black" stroke="none" paint-order="stroke fill markers" d=" M 1326.9861050521836 1352.077342682 L 1314.4205640521836 1358.360113182 L 1326.9861050521836 1364.642883682 Z"/></g></g><g><g><rect fill="white" stroke="none" x="181.3219972493945" y="1410.381452922" width="194.99025430589845" height="19.602243960000003"/></g><text fill="black" stroke="none" font-family="sans-serif" font-size="11pt" font-style="normal" font-weight="normal" text-decoration="normal" x="183.5837946293945" y="1423.952237202" text-anchor="start" dominant-baseline="alphabetic" xml:space="preserve">get_connection(CONN_ID)</text></g><g><path fill="none" stroke="black" paint-order="fill stroke markers" d=" M 67.8539214 1429.983696882 L 487.2672192046875 1429.983696882" stroke-miterlimit="10" stroke-width="1.2565541" stroke-dasharray=""/><g transform="translate(489.78032740468745,1429.983696882) translate(-489.78032740468745,-1429.983696882)"><path fill="black" stroke="none" paint-order="stroke fill markers" d=" M 477.21478640468746 1423.700926382 L 489.78032740468745 1429.983696882 L 477.21478640468746 1436.266467382 Z"/></g></g><g><g><rect fill="white" stroke="none" x="517.0567299752734" y="1441.292683782" width="213.15692605882813" height="19.602243960000003"/></g><text fill="black" stroke="none" font-family="sans-serif" font-size="11pt" font-style="normal" font-weight="normal" text-decoration="normal" x="519.3185273552733" y="1454.863468062" text-anchor="start" dominant-baseline="alphabetic" xml:space="preserve">POST Get Connection Status</text></g><g><path fill="none" stroke="black" paint-order="fill stroke markers" d=" M 489.78032740468745 1460.894927742 L 754.9769504046874 1460.894927742" stroke-miterlimit="10" stroke-width="1.2565541" stroke-dasharray=""/><g transform="translate(757.4900586046874,1460.894927742) translate(-757.4900586046874,-1460.894927742)"><path fill="black" stroke="none" paint-order="stroke fill markers" d=" M 744.9245176046874 1454.612157242 L 757.4900586046874 1460.894927742 L 744.9245176046874 1467.177698242 Z"/></g></g><g><g><rect fill="white" stroke="none" x="553.9817253976366" y="1472.203914642" width="139.30693521410157" height="19.602243960000003"/></g><text fill="black" stroke="none" font-family="sans-serif" font-size="11pt" font-style="normal" font-weight="normal" text-decoration="normal" x="556.2435227776366" y="1485.774698922" text-anchor="start" dominant-baseline="alphabetic" xml:space="preserve">Request Response</text></g><g><path fill="none" stroke="black" paint-order="fill stroke markers" d=" M 757.4900586046874 1491.8061586019999 L 492.29343560468743 1491.8061586019999" stroke-miterlimit="10" stroke-width="1.2565541" stroke-dasharray=""/><g transform="translate(489.78032740468745,1491.8061586019999) translate(-489.78032740468745,-1491.8061586019999)"><path fill="black" stroke="none" paint-order="stroke fill markers" d=" M 502.34586840468745 1485.523388102 L 489.78032740468745 1491.8061586019999 L 502.34586840468745 1498.0889291019998 Z"/></g></g><g><g><rect fill="white" stroke="none" x="140.6719957235156" y="1503.115145502" width="276.29025735765623" height="19.602243960000003"/></g><text fill="black" stroke="none" font-family="sans-serif" font-size="11pt" font-style="normal" font-weight="normal" text-decoration="normal" x="142.9337931035156" y="1516.685929782" text-anchor="start" dominant-baseline="alphabetic" xml:space="preserve">Receive Connection Status Response</text></g><g><path fill="none" stroke="black" paint-order="fill stroke markers" d=" M 489.78032740468745 1522.7173894619998 L 70.36702960000001 1522.7173894619998" stroke-miterlimit="10" stroke-width="1.2565541" stroke-dasharray=""/><g transform="translate(67.8539214,1522.7173894619998) translate(-67.8539214,-1522.7173894619998)"><path fill="black" stroke="none" paint-order="stroke fill markers" d=" M 80.4194624 1516.4346189619998 L 67.8539214 1522.7173894619998 L 80.4194624 1529.0001599619998 Z"/></g></g><g><g><rect fill="white" stroke="none" x="85.69698962" y="1574.7387292019998" width="230.85692300707032" height="19.602243960000003"/></g><text fill="black" stroke="none" font-family="sans-serif" font-size="11pt" font-style="normal" font-weight="normal" text-decoration="normal" x="87.958787" y="1588.3095134819998" text-anchor="start" dominant-baseline="alphabetic" xml:space="preserve">If Connection State != "active"</text></g><g><path fill="none" stroke="black" paint-order="fill stroke markers" d=" M 67.8539214 1594.340973162 L 128.1685182 1594.340973162 L 128.1685182 1613.9432171219999 L 70.36702960000001 1613.9432171219999" stroke-miterlimit="10" stroke-width="1.2565541" stroke-dasharray=""/><g transform="translate(67.8539214,1613.9432171219999) translate(-67.8539214,-1613.9432171219999)"><path fill="black" stroke="none" paint-order="stroke fill markers" d=" M 80.4194624 1607.6604466219999 L 67.8539214 1613.9432171219999 L 80.4194624 1620.2259876219998 Z"/></g></g><g><g><rect fill="white" stroke="none" x="179.21365984705076" y="1625.252204022" width="199.20692911058595" height="19.602243960000003"/></g><text fill="black" stroke="none" font-family="sans-serif" font-size="11pt" font-style="normal" font-weight="normal" text-decoration="normal" x="181.47545722705075" y="1638.8229883019999" text-anchor="start" dominant-baseline="alphabetic" xml:space="preserve">trust_ping(CONN_ID, MSG)</text></g><g><path fill="none" stroke="black" paint-order="fill stroke markers" d=" M 67.8539214 1644.8544479819998 L 487.2672192046875 1644.8544479819998" stroke-miterlimit="10" stroke-width="1.2565541" stroke-dasharray=""/><g transform="translate(489.78032740468745,1644.8544479819998) translate(-489.78032740468745,-1644.8544479819998)"><path fill="black" stroke="none" paint-order="stroke fill markers" d=" M 477.21478640468746 1638.5716774819998 L 489.78032740468745 1644.8544479819998 L 477.21478640468746 1651.1372184819998 Z"/></g></g><g><g><rect fill="white" stroke="none" x="563.9817292123339" y="1656.1634348819998" width="119.30692758470703" height="19.602243960000003"/></g><text fill="black" stroke="none" font-family="sans-serif" font-size="11pt" font-style="normal" font-weight="normal" text-decoration="normal" x="566.2435265923339" y="1669.7342191619998" text-anchor="start" dominant-baseline="alphabetic" xml:space="preserve">POST Trust Ping</text></g><g><path fill="none" stroke="black" paint-order="fill stroke markers" d=" M 489.78032740468745 1675.7656788419997 L 754.9769504046874 1675.7656788419997" stroke-miterlimit="10" stroke-width="1.2565541" stroke-dasharray=""/><g transform="translate(757.4900586046874,1675.7656788419997) translate(-757.4900586046874,-1675.7656788419997)"><path fill="black" stroke="none" paint-order="stroke fill markers" d=" M 744.9245176046874 1669.4829083419997 L 757.4900586046874 1675.7656788419997 L 744.9245176046874 1682.0484493419997 Z"/></g></g><g><g><rect fill="white" stroke="none" x="830.5404186808086" y="1687.0746657419998" width="79.29026498705078" height="19.602243960000003"/></g><text fill="black" stroke="none" font-family="sans-serif" font-size="11pt" font-style="normal" font-weight="normal" text-decoration="normal" x="832.8022160608085" y="1700.6454500219997" text-anchor="start" dominant-baseline="alphabetic" xml:space="preserve">DIDComm</text></g><g><path fill="none" stroke="black" paint-order="fill stroke markers" d=" M 757.4900586046874 1706.6769097019996 L 980.3679355439804 1706.6769097019996" stroke-miterlimit="10" stroke-width="1.2565541" stroke-dasharray=""/><g transform="translate(982.8810437439804,1706.6769097019996) translate(-982.8810437439804,-1706.6769097019996)"><path fill="black" stroke="none" paint-order="stroke fill markers" d=" M 970.3155027439803 1700.3941392019997 L 982.8810437439804 1706.6769097019996 L 970.3155027439803 1712.9596802019996 Z"/></g></g><g><g><rect fill="white" stroke="none" x="1000.7241119639805" y="1717.9858966019997" width="293.3402756682031" height="19.602243960000003"/></g><text fill="black" stroke="none" font-family="sans-serif" font-size="11pt" font-style="normal" font-weight="normal" text-decoration="normal" x="1002.9859093439804" y="1731.5566808819997" text-anchor="start" dominant-baseline="alphabetic" xml:space="preserve">Check Connection state == "response"</text></g><g><path fill="none" stroke="black" paint-order="fill stroke markers" d=" M 982.8810437439804 1737.5881405619998 L 1043.1956405439805 1737.5881405619998 L 1043.1956405439805 1757.1903845219997 L 985.3941519439804 1757.1903845219997" stroke-miterlimit="10" stroke-width="1.2565541" stroke-dasharray=""/><g transform="translate(982.8810437439804,1757.1903845219997) translate(-982.8810437439804,-1757.1903845219997)"><path fill="black" stroke="none" paint-order="stroke fill markers" d=" M 995.4465847439805 1750.9076140219997 L 982.8810437439804 1757.1903845219997 L 995.4465847439805 1763.4731550219997 Z"/></g></g><g><g><rect fill="white" stroke="none" x="830.5404186808086" y="1768.4993714219997" width="79.29026498705078" height="19.602243960000003"/></g><text fill="black" stroke="none" font-family="sans-serif" font-size="11pt" font-style="normal" font-weight="normal" text-decoration="normal" x="832.8022160608085" y="1782.0701557019997" text-anchor="start" dominant-baseline="alphabetic" xml:space="preserve">DIDComm</text></g><g><path fill="none" stroke="black" paint-order="fill stroke markers" d=" M 982.8810437439804 1788.1016153819996 L 760.0031668046875 1788.1016153819996" stroke-miterlimit="10" stroke-width="1.2565541" stroke-dasharray=""/><g transform="translate(757.4900586046874,1788.1016153819996) translate(-757.4900586046874,-1788.1016153819996)"><path fill="black" stroke="none" paint-order="stroke fill markers" d=" M 770.0555996046875 1781.8188448819997 L 757.4900586046874 1788.1016153819996 L 770.0555996046875 1794.3843858819996 Z"/></g></g><g><g><rect fill="white" stroke="none" x="517.0067269235155" y="1799.4106022819997" width="213.25693216234376" height="19.602243960000003"/></g><text fill="black" stroke="none" font-family="sans-serif" font-size="11pt" font-style="normal" font-weight="normal" text-decoration="normal" x="519.2685243035155" y="1812.9813865619997" text-anchor="start" dominant-baseline="alphabetic" xml:space="preserve">Receive Trust Ping Response</text></g><g><path fill="none" stroke="black" paint-order="fill stroke markers" d=" M 757.4900586046874 1819.0128462419996 L 492.29343560468743 1819.0128462419996" stroke-miterlimit="10" stroke-width="1.2565541" stroke-dasharray=""/><g transform="translate(489.78032740468745,1819.0128462419996) translate(-489.78032740468745,-1819.0128462419996)"><path fill="black" stroke="none" paint-order="stroke fill markers" d=" M 502.34586840468745 1812.7300757419996 L 489.78032740468745 1819.0128462419996 L 502.34586840468745 1825.2956167419995 Z"/></g></g><g><g><rect fill="white" stroke="none" x="85.69698962" y="1830.3218331419996" width="231.02359476" height="19.602243960000003"/></g><text fill="black" stroke="none" font-family="sans-serif" font-size="11pt" font-style="normal" font-weight="normal" text-decoration="normal" x="87.958787" y="1843.8926174219996" text-anchor="start" dominant-baseline="alphabetic" xml:space="preserve">Connection Status == "active"</text></g><g><path fill="none" stroke="black" paint-order="fill stroke markers" d=" M 67.8539214 1849.9240771019997 L 128.1685182 1849.9240771019997 L 128.1685182 1869.5263210619996 L 70.36702960000001 1869.5263210619996" stroke-miterlimit="10" stroke-width="1.2565541" stroke-dasharray=""/><g transform="translate(67.8539214,1869.5263210619996) translate(-67.8539214,-1869.5263210619996)"><path fill="black" stroke="none" paint-order="stroke fill markers" d=" M 80.4194624 1863.2435505619997 L 67.8539214 1869.5263210619996 L 80.4194624 1875.8090915619996 Z"/></g></g><path fill="white" stroke="black" paint-order="fill stroke markers" d=" M 54.283137120000006 1880.8353079619994 L 489.78032740468745 1880.8353079619994 L 503.35111168468745 1894.4060922419994 L 503.35111168468745 1915.5162011219995 L 54.283137120000006 1915.5162011219995 L 54.283137120000006 1880.8353079619994 M 489.78032740468745 1880.8353079619994 L 489.78032740468745 1894.4060922419994 L 503.35111168468745 1894.4060922419994" stroke-miterlimit="10" stroke-width="1.2565541" stroke-dasharray=""/><g><text fill="black" stroke="none" font-family="sans-serif" font-size="11pt" font-style="normal" font-weight="normal" text-decoration="normal" x="179.93378928881833" y="1901.9454168419995" text-anchor="start" dominant-baseline="alphabetic" xml:space="preserve">Connection in </text><text fill="black" stroke="none" font-family="sans-serif" font-size="11pt" font-style="normal" font-weight="bold" text-decoration="normal" x="285.7004595158691" y="1901.9454168419995" text-anchor="start" dominant-baseline="alphabetic" xml:space="preserve">active</text><text fill="black" stroke="none" font-family="sans-serif" font-size="11pt" font-style="normal" font-weight="normal" text-decoration="normal" x="335.86712745410154" y="1901.9454168419995" text-anchor="start" dominant-baseline="alphabetic" xml:space="preserve"> state</text></g><g><g><rect fill="white" stroke="none" x="201.81365832117186" y="1967.5375408619996" width="154.00693216234376" height="19.602243960000003"/></g><text fill="black" stroke="none" font-family="sans-serif" font-size="11pt" font-style="normal" font-weight="normal" text-decoration="normal" x="204.07545570117185" y="1981.1083251419996" text-anchor="start" dominant-baseline="alphabetic" xml:space="preserve">Send Basic Message</text></g><g><path fill="none" stroke="black" paint-order="fill stroke markers" d=" M 67.8539214 1987.1397848219995 L 487.2672192046875 1987.1397848219995" stroke-miterlimit="10" stroke-width="1.2565541" stroke-dasharray=""/><g transform="translate(489.78032740468745,1987.1397848219995) translate(-489.78032740468745,-1987.1397848219995)"><path fill="black" stroke="none" paint-order="stroke fill markers" d=" M 477.21478640468746 1980.8570143219995 L 489.78032740468745 1987.1397848219995 L 477.21478640468746 1993.4225553219994 Z"/></g></g><g><g><rect fill="white" stroke="none" x="545.7733971505663" y="1998.4487717219995" width="155.7235917082422" height="19.602243960000003"/></g><text fill="black" stroke="none" font-family="sans-serif" font-size="11pt" font-style="normal" font-weight="normal" text-decoration="normal" x="548.0351945305663" y="2012.0195560019995" text-anchor="start" dominant-baseline="alphabetic" xml:space="preserve">POST Basic Message</text></g><g><path fill="none" stroke="black" paint-order="fill stroke markers" d=" M 489.78032740468745 2018.0510156819994 L 754.9769504046874 2018.0510156819994" stroke-miterlimit="10" stroke-width="1.2565541" stroke-dasharray=""/><g transform="translate(757.4900586046874,2018.0510156819994) translate(-757.4900586046874,-2018.0510156819994)"><path fill="black" stroke="none" paint-order="stroke fill markers" d=" M 744.9245176046874 2011.7682451819994 L 757.4900586046874 2018.0510156819994 L 744.9245176046874 2024.3337861819994 Z"/></g></g><g><g><rect fill="white" stroke="none" x="830.5404186808086" y="2029.3600025819994" width="79.29026498705078" height="19.602243960000003"/></g><text fill="black" stroke="none" font-family="sans-serif" font-size="11pt" font-style="normal" font-weight="normal" text-decoration="normal" x="832.8022160608085" y="2042.9307868619994" text-anchor="start" dominant-baseline="alphabetic" xml:space="preserve">DIDComm</text></g><g><path fill="none" stroke="black" paint-order="fill stroke markers" d=" M 757.4900586046874 2048.9622465419993 L 980.3679355439804 2048.9622465419993" stroke-miterlimit="10" stroke-width="1.2565541" stroke-dasharray=""/><g transform="translate(982.8810437439804,2048.9622465419993) translate(-982.8810437439804,-2048.9622465419993)"><path fill="black" stroke="none" paint-order="stroke fill markers" d=" M 970.3155027439803 2042.6794760419994 L 982.8810437439804 2048.9622465419993 L 970.3155027439803 2055.2450170419993 Z"/></g></g><g><g><rect fill="white" stroke="none" x="1032.639006518082" y="2060.2712334419994" width="232.02359476" height="19.602243960000003"/></g><g><rect fill="white" stroke="none" x="1032.639006518082" y="2075.3498826419996" width="4.52359476" height="19.602243960000003"/></g><text fill="black" stroke="none" font-family="sans-serif" font-size="11pt" font-style="normal" font-weight="normal" text-decoration="normal" x="1034.900803898082" y="2073.8420177219996" text-anchor="start" dominant-baseline="alphabetic" xml:space="preserve">POST basicmessages Webhook</text><text fill="black" stroke="none" font-family="sans-serif" font-size="11pt" font-style="normal" font-weight="normal" text-decoration="normal" x="1034.900803898082" y="2088.920666922" text-anchor="start" dominant-baseline="alphabetic" xml:space="preserve"></text></g><g><path fill="none" stroke="black" paint-order="fill stroke markers" d=" M 982.8810437439804 2094.952126601999 L 1311.9074558521836 2094.952126601999" stroke-miterlimit="10" stroke-width="1.2565541" stroke-dasharray=""/><g transform="translate(1314.4205640521836,2094.952126601999) translate(-1314.4205640521836,-2094.952126601999)"><path fill="black" stroke="none" paint-order="stroke fill markers" d=" M 1301.8550230521837 2088.6693561019993 L 1314.4205640521836 2094.952126601999 L 1301.8550230521837 2101.234897101999 Z"/></g></g><g><g><rect fill="white" stroke="none" x="1424.8803009733556" y="2106.2611135019993" width="201.00693216234376" height="19.602243960000003"/></g><text fill="black" stroke="none" font-family="sans-serif" font-size="11pt" font-style="normal" font-weight="normal" text-decoration="normal" x="1427.1420983533555" y="2119.8318977819995" text-anchor="start" dominant-baseline="alphabetic" xml:space="preserve">Emit basicmessages Event</text></g><g><path fill="none" stroke="black" paint-order="fill stroke markers" d=" M 1314.4205640521836 2125.8633574619994 L 1733.8338618568712 2125.8633574619994" stroke-miterlimit="10" stroke-width="1.2565541" stroke-dasharray=""/><g transform="translate(1736.3469700568712,2125.8633574619994) translate(-1736.3469700568712,-2125.8633574619994)"><path fill="black" stroke="none" paint-order="stroke fill markers" d=" M 1723.7814290568713 2119.5805869619994 L 1736.3469700568712 2125.8633574619994 L 1723.7814290568713 2132.1461279619994 Z"/></g></g><g><g><rect fill="white" stroke="none" x="1754.1900382768713" y="2137.1723443619994" width="219.35692300707032" height="19.602243960000003"/></g><g><rect fill="white" stroke="none" x="1754.1900382768713" y="2152.2509935619996" width="4.52359476" height="19.602243960000003"/></g><text fill="black" stroke="none" font-family="sans-serif" font-size="11pt" font-style="normal" font-weight="normal" text-decoration="normal" x="1756.4518356568713" y="2150.7431286419996" text-anchor="start" dominant-baseline="alphabetic" xml:space="preserve">Handle basicmessages Event</text><text fill="black" stroke="none" font-family="sans-serif" font-size="11pt" font-style="normal" font-weight="normal" text-decoration="normal" x="1756.4518356568713" y="2165.821777842" text-anchor="start" dominant-baseline="alphabetic" xml:space="preserve"></text></g><g><path fill="none" stroke="black" paint-order="fill stroke markers" d=" M 1736.3469700568712 2171.8532375219993 L 1796.661566856871 2171.8532375219993 L 1796.661566856871 2191.4554814819994 L 1738.8600782568712 2191.4554814819994" stroke-miterlimit="10" stroke-width="1.2565541" stroke-dasharray=""/><g transform="translate(1736.3469700568712,2191.4554814819994) translate(-1736.3469700568712,-2191.4554814819994)"><path fill="black" stroke="none" paint-order="stroke fill markers" d=" M 1748.9125110568712 2185.1727109819994 L 1736.3469700568712 2191.4554814819994 L 1748.9125110568712 2197.7382519819994 Z"/></g></g><g><g><rect fill="white" stroke="none" x="1448.3803009733556" y="2243.4768212219997" width="154.00693216234376" height="19.602243960000003"/></g><text fill="black" stroke="none" font-family="sans-serif" font-size="11pt" font-style="normal" font-weight="normal" text-decoration="normal" x="1450.6420983533555" y="2257.047605502" text-anchor="start" dominant-baseline="alphabetic" xml:space="preserve">Send Basic Message</text></g><g><path fill="none" stroke="black" paint-order="fill stroke markers" d=" M 1736.3469700568712 2263.079065182 L 1316.9336722521837 2263.079065182" stroke-miterlimit="10" stroke-width="1.2565541" stroke-dasharray=""/><g transform="translate(1314.4205640521836,2263.079065182) translate(-1314.4205640521836,-2263.079065182)"><path fill="black" stroke="none" paint-order="stroke fill markers" d=" M 1326.9861050521836 2256.796294682 L 1314.4205640521836 2263.079065182 L 1326.9861050521836 2269.3618356819998 Z"/></g></g><g><g><rect fill="white" stroke="none" x="1070.7890080439608" y="2274.388052082" width="155.7235917082422" height="19.602243960000003"/></g><text fill="black" stroke="none" font-family="sans-serif" font-size="11pt" font-style="normal" font-weight="normal" text-decoration="normal" x="1073.0508054239608" y="2287.958836362" text-anchor="start" dominant-baseline="alphabetic" xml:space="preserve">POST Basic Message</text></g><g><path fill="none" stroke="black" paint-order="fill stroke markers" d=" M 1314.4205640521836 2293.990296042 L 985.3941519439804 2293.990296042" stroke-miterlimit="10" stroke-width="1.2565541" stroke-dasharray=""/><g transform="translate(982.8810437439804,2293.990296042) translate(-982.8810437439804,-2293.990296042)"><path fill="black" stroke="none" paint-order="stroke fill markers" d=" M 995.4465847439805 2287.707525542 L 982.8810437439804 2293.990296042 L 995.4465847439805 2300.273066542 Z"/></g></g><g><g><rect fill="white" stroke="none" x="830.5404186808086" y="2305.299282942" width="79.29026498705078" height="19.602243960000003"/></g><text fill="black" stroke="none" font-family="sans-serif" font-size="11pt" font-style="normal" font-weight="normal" text-decoration="normal" x="832.8022160608085" y="2318.870067222" text-anchor="start" dominant-baseline="alphabetic" xml:space="preserve">DIDComm</text></g><g><path fill="none" stroke="black" paint-order="fill stroke markers" d=" M 982.8810437439804 2324.901526902 L 760.0031668046875 2324.901526902" stroke-miterlimit="10" stroke-width="1.2565541" stroke-dasharray=""/><g transform="translate(757.4900586046874,2324.901526902) translate(-757.4900586046874,-2324.901526902)"><path fill="black" stroke="none" paint-order="stroke fill markers" d=" M 770.0555996046875 2318.618756402 L 757.4900586046874 2324.901526902 L 770.0555996046875 2331.184297402 Z"/></g></g><g><g><rect fill="white" stroke="none" x="507.62339562468736" y="2336.210513802" width="232.02359476" height="19.602243960000003"/></g><g><rect fill="white" stroke="none" x="507.62339562468736" y="2351.2891630020004" width="4.52359476" height="19.602243960000003"/></g><text fill="black" stroke="none" font-family="sans-serif" font-size="11pt" font-style="normal" font-weight="normal" text-decoration="normal" x="509.8851930046874" y="2349.7812980820004" text-anchor="start" dominant-baseline="alphabetic" xml:space="preserve">POST basicmessages Webhook</text><text fill="black" stroke="none" font-family="sans-serif" font-size="11pt" font-style="normal" font-weight="normal" text-decoration="normal" x="509.8851930046874" y="2364.8599472820006" text-anchor="start" dominant-baseline="alphabetic" xml:space="preserve"></text></g><g><path fill="none" stroke="black" paint-order="fill stroke markers" d=" M 757.4900586046874 2370.891406962 L 492.29343560468743 2370.891406962" stroke-miterlimit="10" stroke-width="1.2565541" stroke-dasharray=""/><g transform="translate(489.78032740468745,2370.891406962) translate(-489.78032740468745,-2370.891406962)"><path fill="black" stroke="none" paint-order="stroke fill markers" d=" M 502.34586840468745 2364.608636462 L 489.78032740468745 2370.891406962 L 502.34586840468745 2377.174177462 Z"/></g></g><g><g><rect fill="white" stroke="none" x="178.31365832117186" y="2382.200393862" width="201.00693216234376" height="19.602243960000003"/></g><text fill="black" stroke="none" font-family="sans-serif" font-size="11pt" font-style="normal" font-weight="normal" text-decoration="normal" x="180.57545570117185" y="2395.7711781420003" text-anchor="start" dominant-baseline="alphabetic" xml:space="preserve">Emit basicmessages Event</text></g><g><path fill="none" stroke="black" paint-order="fill stroke markers" d=" M 489.78032740468745 2401.802637822 L 70.36702960000001 2401.802637822" stroke-miterlimit="10" stroke-width="1.2565541" stroke-dasharray=""/><g transform="translate(67.8539214,2401.802637822) translate(-67.8539214,-2401.802637822)"><path fill="black" stroke="none" paint-order="stroke fill markers" d=" M 80.4194624 2395.519867322 L 67.8539214 2401.802637822 L 80.4194624 2408.085408322 Z"/></g></g><g><g><rect fill="white" stroke="none" x="85.69698962" y="2413.111624722" width="219.35692300707032" height="19.602243960000003"/></g><text fill="black" stroke="none" font-family="sans-serif" font-size="11pt" font-style="normal" font-weight="normal" text-decoration="normal" x="87.958787" y="2426.6824090020004" text-anchor="start" dominant-baseline="alphabetic" xml:space="preserve">Handle basicmessages Event</text></g><g><path fill="none" stroke="black" paint-order="fill stroke markers" d=" M 67.8539214 2432.713868682 L 128.1685182 2432.713868682 L 128.1685182 2452.316112642 L 70.36702960000001 2452.316112642" stroke-miterlimit="10" stroke-width="1.2565541" stroke-dasharray=""/><g transform="translate(67.8539214,2452.316112642) translate(-67.8539214,-2452.316112642)"><path fill="black" stroke="none" paint-order="stroke fill markers" d=" M 80.4194624 2446.033342142 L 67.8539214 2452.316112642 L 80.4194624 2458.598883142 Z"/></g></g><g><g/><path fill="none" stroke="black" paint-order="fill stroke markers" d=" M 15.078649200000001 137.74346044199999 L 542.5555996046875 137.74346044199999 L 542.5555996046875 259.88051896199994 L 15.078649200000001 259.88051896199994 L 15.078649200000001 137.74346044199999 Z" stroke-miterlimit="10" stroke-width="2.154092742857143" stroke-dasharray=""/><path fill="white" stroke="black" paint-order="fill stroke markers" d=" M 15.078649200000001 137.74346044199999 L 15.078649200000001 155.837839482 L 217.88594149648438 155.837839482 L 226.93313101648437 146.79064996199997 L 226.93313101648437 137.74346044199999 L 15.078649200000001 137.74346044199999" stroke-miterlimit="10" stroke-width="2.154092742857143" stroke-dasharray=""/><text fill="black" stroke="none" font-family="sans-serif" font-size="8.8pt" font-style="normal" font-weight="bold" text-decoration="normal" x="30.157298400000002" y="149.80637980199998" text-anchor="start" dominant-baseline="alphabetic" xml:space="preserve">Instatiate Aries Controller</text></g><g><g/><path fill="none" stroke="black" paint-order="fill stroke markers" d=" M 1261.6452918521836 271.189505862 L 1789.1222422568712 271.189505862 L 1789.1222422568712 393.3265643819999 L 1261.6452918521836 393.3265643819999 L 1261.6452918521836 271.189505862 Z" stroke-miterlimit="10" stroke-width="2.154092742857143" stroke-dasharray=""/><path fill="white" stroke="black" paint-order="fill stroke markers" d=" M 1261.6452918521836 271.189505862 L 1261.6452918521836 289.28388490199995 L 1464.452584148668 289.28388490199995 L 1473.499773668668 280.236695382 L 1473.499773668668 271.189505862 L 1261.6452918521836 271.189505862" stroke-miterlimit="10" stroke-width="2.154092742857143" stroke-dasharray=""/><text fill="black" stroke="none" font-family="sans-serif" font-size="8.8pt" font-style="normal" font-weight="bold" text-decoration="normal" x="1276.7239410521836" y="283.25242522199994" text-anchor="start" dominant-baseline="alphabetic" xml:space="preserve">Instatiate Aries Controller</text></g><g><g/><path fill="none" stroke="black" paint-order="fill stroke markers" d=" M 15.078649200000001 404.63555128199994 L 810.2653308046874 404.63555128199994 L 810.2653308046874 608.197315482 L 15.078649200000001 608.197315482 L 15.078649200000001 404.63555128199994 Z" stroke-miterlimit="10" stroke-width="2.154092742857143" stroke-dasharray=""/><path fill="white" stroke="black" paint-order="fill stroke markers" d=" M 15.078649200000001 404.63555128199994 L 15.078649200000001 422.7299303219999 L 215.55261324941407 422.7299303219999 L 224.59980276941405 413.68274080199996 L 224.59980276941405 404.63555128199994 L 15.078649200000001 404.63555128199994" stroke-miterlimit="10" stroke-width="2.154092742857143" stroke-dasharray=""/><text fill="black" stroke="none" font-family="sans-serif" font-size="8.8pt" font-style="normal" font-weight="bold" text-decoration="normal" x="30.157298400000002" y="416.6984706419999" text-anchor="start" dominant-baseline="alphabetic" xml:space="preserve">Create Invitation Request</text></g><g><g/><path fill="none" stroke="black" paint-order="fill stroke markers" d=" M 437.00505520468744 619.506302382 L 1789.1222422568712 619.506302382 L 1789.1222422568712 1027.3837632420004 L 437.00505520468744 1027.3837632420004 L 437.00505520468744 619.506302382 Z" stroke-miterlimit="10" stroke-width="2.154092742857143" stroke-dasharray=""/><path fill="white" stroke="black" paint-order="fill stroke markers" d=" M 437.00505520468744 619.506302382 L 437.00505520468744 637.600681422 L 590.5623551305664 637.600681422 L 599.6095446505664 628.5534919019999 L 599.6095446505664 619.506302382 L 437.00505520468744 619.506302382" stroke-miterlimit="10" stroke-width="2.154092742857143" stroke-dasharray=""/><text fill="black" stroke="none" font-family="sans-serif" font-size="8.8pt" font-style="normal" font-weight="bold" text-decoration="normal" x="452.0837044046874" y="631.569221742" text-anchor="start" dominant-baseline="alphabetic" xml:space="preserve">Accept Connection</text></g><g><g/><path fill="none" stroke="black" paint-order="fill stroke markers" d=" M 15.078649200000001 1038.6927501420005 L 1649.964748148668 1038.6927501420005 L 1649.964748148668 1369.669100082 L 15.078649200000001 1369.669100082 L 15.078649200000001 1038.6927501420005 Z" stroke-miterlimit="10" stroke-width="2.154092742857143" stroke-dasharray=""/><path fill="white" stroke="black" paint-order="fill stroke markers" d=" M 15.078649200000001 1038.6927501420005 L 15.078649200000001 1056.7871291820004 L 227.03595065175782 1056.7871291820004 L 236.0831401717578 1047.7399396620006 L 236.0831401717578 1038.6927501420005 L 15.078649200000001 1038.6927501420005" stroke-miterlimit="10" stroke-width="2.154092742857143" stroke-dasharray=""/><text fill="black" stroke="none" font-family="sans-serif" font-size="8.8pt" font-style="normal" font-weight="bold" text-decoration="normal" x="30.157298400000002" y="1050.7556695020005" text-anchor="start" dominant-baseline="alphabetic" xml:space="preserve">Accept Connection Request</text></g><g><g/><path fill="none" stroke="black" paint-order="fill stroke markers" d=" M 15.078649200000001 1380.9780869820001 L 810.2653308046874 1380.9780869820001 L 810.2653308046874 1534.0263763619998 L 15.078649200000001 1534.0263763619998 L 15.078649200000001 1380.9780869820001 Z" stroke-miterlimit="10" stroke-width="2.154092742857143" stroke-dasharray=""/><path fill="white" stroke="black" paint-order="fill stroke markers" d=" M 15.078649200000001 1380.9780869820001 L 15.078649200000001 1399.072466022 L 210.36927889882813 1399.072466022 L 219.41646841882812 1390.0252765020002 L 219.41646841882812 1380.9780869820001 L 15.078649200000001 1380.9780869820001" stroke-miterlimit="10" stroke-width="2.154092742857143" stroke-dasharray=""/><text fill="black" stroke="none" font-family="sans-serif" font-size="8.8pt" font-style="normal" font-weight="bold" text-decoration="normal" x="30.157298400000002" y="1393.0410063420002" text-anchor="start" dominant-baseline="alphabetic" xml:space="preserve">Check Connection Status</text></g><g><g/><path fill="none" stroke="black" paint-order="fill stroke markers" d=" M 15.078649200000001 1545.3353632619999 L 1299.3419148521834 1545.3353632619999 L 1299.3419148521834 1926.8251880219996 L 15.078649200000001 1926.8251880219996 L 15.078649200000001 1545.3353632619999 Z" stroke-miterlimit="10" stroke-width="2.154092742857143" stroke-dasharray=""/><path fill="white" stroke="black" paint-order="fill stroke markers" d=" M 15.078649200000001 1545.3353632619999 L 15.078649200000001 1563.4297423019998 L 356.1692666917969 1563.4297423019998 L 365.2164562117969 1554.382552782 L 365.2164562117969 1545.3353632619999 L 15.078649200000001 1545.3353632619999" stroke-miterlimit="10" stroke-width="2.154092742857143" stroke-dasharray=""/><text fill="black" stroke="none" font-family="sans-serif" font-size="8.8pt" font-style="normal" font-weight="bold" text-decoration="normal" x="30.157298400000002" y="1557.398282622" text-anchor="start" dominant-baseline="alphabetic" xml:space="preserve">Send Trust Ping to Change State of Connection</text></g><g><g/><path fill="none" stroke="black" paint-order="fill stroke markers" d=" M 15.078649200000001 1938.1341749219996 L 1978.8244885039414 1938.1341749219996 L 1978.8244885039414 2202.7644683819994 L 15.078649200000001 2202.7644683819994 L 15.078649200000001 1938.1341749219996 Z" stroke-miterlimit="10" stroke-width="2.154092742857143" stroke-dasharray=""/><path fill="white" stroke="black" paint-order="fill stroke markers" d=" M 15.078649200000001 1938.1341749219996 L 15.078649200000001 1956.2285539619995 L 367.05262850820316 1956.2285539619995 L 376.0998180282032 1947.1813644419997 L 376.0998180282032 1938.1341749219996 L 15.078649200000001 1938.1341749219996" stroke-miterlimit="10" stroke-width="2.154092742857143" stroke-dasharray=""/><text fill="black" stroke="none" font-family="sans-serif" font-size="8.8pt" font-style="normal" font-weight="bold" text-decoration="normal" x="30.157298400000002" y="1950.1970942819996" text-anchor="start" dominant-baseline="alphabetic" xml:space="preserve">Send Basic Message - Data Owner to Researcher</text></g><g><g/><path fill="none" stroke="black" paint-order="fill stroke markers" d=" M 15.078649200000001 2214.0734552819995 L 1789.1222422568712 2214.0734552819995 L 1789.1222422568712 2463.625099542 L 15.078649200000001 2463.625099542 L 15.078649200000001 2214.0734552819995 Z" stroke-miterlimit="10" stroke-width="2.154092742857143" stroke-dasharray=""/><path fill="white" stroke="black" paint-order="fill stroke markers" d=" M 15.078649200000001 2214.0734552819995 L 15.078649200000001 2232.1678343219996 L 367.05262850820316 2232.1678343219996 L 376.0998180282032 2223.1206448019993 L 376.0998180282032 2214.0734552819995 L 15.078649200000001 2214.0734552819995" stroke-miterlimit="10" stroke-width="2.154092742857143" stroke-dasharray=""/><text fill="black" stroke="none" font-family="sans-serif" font-size="8.8pt" font-style="normal" font-weight="bold" text-decoration="normal" x="30.157298400000002" y="2226.1363746419997" text-anchor="start" dominant-baseline="alphabetic" xml:space="preserve">Send Basic Message - Researcher to Data Owner</text></g></g><g/><g/><g/><g/><g/><g/></g></svg>